<svg width="30" height="30" viewBox="0 0 30 30" fill="none" xmlns="http://www.w3.org/2000/svg">
<path d="M26.25 3.75H3.75C2.375 3.75 1.25 4.875 1.25 6.25V21.25C1.25 22.625 2.375 23.75 3.75 23.75H10V25C10 25.6875 10.5625 26.25 11.25 26.25H18.75C19.4375 26.25 20 25.6875 20 25V23.75H26.25C27.625 23.75 28.7375 22.625 28.7375 21.25L28.75 6.25C28.75 4.875 27.625 3.75 26.25 3.75ZM25 21.25H5C4.3125 21.25 3.75 20.6875 3.75 20V7.5C3.75 6.8125 4.3125 6.25 5 6.25H25C25.6875 6.25 26.25 6.8125 26.25 7.5V20C26.25 20.6875 25.6875 21.25 25 21.25Z" fill="#99A0C3"/>
</svg>
