<svg width="30" height="30" viewBox="0 0 30 30" fill="none" xmlns="http://www.w3.org/2000/svg">
<path d="M15 16.125L12.4625 18.625C11.8875 19.2 11.4375 19.9125 11.3 20.7125C10.925 23.0125 12.725 25 15 25C17.275 25 19.075 23.0125 18.7 20.725C18.5625 19.925 18.125 19.2 17.5375 18.6375L15 16.125Z" fill="#99A0C3"/>
<path d="M19.45 8.18746C17.975 10.025 15 8.98746 15 6.62496V4.71246C15 3.71246 13.8875 3.11246 13.0625 3.66246C10.15 5.61246 5 9.96246 5 16.25C5 19.9 6.95 23.0875 9.8625 24.825C9.39601 24.1642 9.06616 23.417 8.8923 22.6271C8.71843 21.8372 8.70405 21.0205 8.85 20.225C9.0875 18.925 9.7875 17.75 10.7375 16.825L14.125 13.4875C14.6125 13.0125 15.3875 13.0125 15.875 13.4875L19.2875 16.85C20.2125 17.7625 20.9125 18.9125 21.1375 20.2C21.45 21.9 21.05 23.5 20.175 24.775C22.5375 23.3375 24.2875 20.95 24.8125 18.15C25.575 14.0625 23.8 10.1875 20.7875 8.02496C20.375 7.71246 19.7875 7.77496 19.45 8.18746Z" fill="#99A0C3"/>
</svg>
